<svg width="11" height="11" viewBox="0 0 11 11" fill="none" xmlns="http://www.w3.org/2000/svg">
<path d="M0.66 0C0.298203 0 0 0.298203 0 0.66V10.34C0 10.7018 0.298203 11 0.66 11H8.14C8.5018 11 8.8 10.7018 8.8 10.34V8.58L8.36 9.02V10.34C8.36 10.4637 8.26375 10.56 8.14 10.56H0.66C0.53625 10.56 0.44 10.4637 0.44 10.34V0.66C0.44 0.535391 0.535391 0.44 0.66 0.44H8.14C8.26375 0.44 8.36 0.53625 8.36 0.66V1.98L8.8 2.42V0.66C8.8 0.298203 8.5018 0 8.14 0H0.66ZM8.32563 2.88063C8.24313 2.89523 8.17695 2.95539 8.15375 3.03531C8.13055 3.11609 8.15461 3.20203 8.21563 3.25875L10.2369 5.28H3.74C3.73313 5.28 3.72625 5.28 3.71938 5.28C3.5982 5.28602 3.50367 5.38914 3.50969 5.51031C3.5157 5.63148 3.61883 5.72602 3.74 5.72H10.2369L8.21563 7.74125C8.15031 7.79453 8.12023 7.87961 8.13914 7.96211C8.15805 8.04375 8.2225 8.1082 8.30414 8.12711C8.38664 8.14602 8.47172 8.11594 8.525 8.05062L10.9244 5.65812L11.0756 5.5L10.9244 5.34188L8.525 2.94937C8.47945 2.90039 8.41328 2.87547 8.34625 2.88063C8.33938 2.88063 8.3325 2.88063 8.32563 2.88063Z" fill="#334257"/>
</svg>
