<svg width="25" height="24" viewBox="0 0 25 24" fill="none" xmlns="http://www.w3.org/2000/svg">
<path d="M12.4814 0.527368C12.3765 0.530987 12.2754 0.567546 12.1924 0.63186L0.692362 9.60549C0.587726 9.68708 0.519785 9.80689 0.503486 9.93857C0.487186 10.0702 0.523864 10.203 0.605449 10.3076C0.687034 10.4123 0.806844 10.4802 0.938522 10.4965C1.0702 10.5128 1.20296 10.4761 1.3076 10.3946L1.99998 9.85452V23C1.99999 23.1326 2.05268 23.2598 2.14644 23.3536C2.24021 23.4473 2.36738 23.5 2.49998 23.5H9.41599C9.46999 23.509 9.52508 23.509 9.57908 23.5H15.416C15.47 23.509 15.5251 23.509 15.5791 23.5H22.5C22.6326 23.5 22.7597 23.4473 22.8535 23.3536C22.9473 23.2598 23 23.1326 23 23V9.85452L23.6924 10.3946C23.7442 10.435 23.8034 10.4648 23.8668 10.4823C23.9301 10.4998 23.9962 10.5046 24.0614 10.4965C24.1266 10.4885 24.1896 10.4676 24.2468 10.4352C24.3039 10.4028 24.3541 10.3595 24.3945 10.3077C24.4349 10.2559 24.4647 10.1966 24.4822 10.1333C24.4997 10.0699 24.5046 10.0038 24.4965 9.93857C24.4884 9.87337 24.4676 9.81039 24.4352 9.75324C24.4028 9.69609 24.3594 9.64589 24.3076 9.60549L20.5 6.63479V3.00002H17.5V4.29299L12.8076 0.63186C12.7146 0.55972 12.5991 0.522718 12.4814 0.527368ZM12.5 1.66116L22 9.07424V22.5H16V13H8.99998V22.5H2.99998V9.07424L12.5 1.66116ZM18.5 4.00002H19.5V5.85452L18.5 5.07327V4.00002ZM9.99998 14H15V22.5H9.99998V14Z" fill="#334257"/>
</svg>
