<svg width="23" height="22" viewBox="0 0 23 22" fill="none" xmlns="http://www.w3.org/2000/svg">
<path d="M2 0V17.5H2.5C7.36719 17.5 11.2754 19.4473 11.2754 19.4473L11.5 19.5586L11.7246 19.4473C11.7246 19.4473 15.6328 17.5 20.5 17.5H21V0H20.5C15.5801 0 11.8203 1.81055 11.5 1.96875C11.1797 1.81055 7.41992 0 2.5 0H2ZM3 1.04492C7.12305 1.16211 10.3262 2.52344 11 2.82812V18.252C9.93555 17.793 6.94336 16.6504 3 16.5449V1.04492ZM20 1.04492V16.5449C16.0566 16.6504 13.0645 17.793 12 18.252V2.82812C12.6738 2.52344 15.877 1.16211 20 1.04492ZM0 2.5V19.5H0.5C6.89648 19.5 11.2969 21.457 11.2969 21.457L11.5 21.5469L11.7031 21.457C11.7031 21.457 16.1035 19.5 22.5 19.5H23V2.5H22V18.5352C15.9004 18.6387 11.7793 20.3555 11.5 20.4766C11.2207 20.3555 7.09961 18.6387 1 18.5352V2.5H0Z" fill="#334257"/>
</svg>
