<svg width="10" height="11" viewBox="0 0 10 11" fill="none" xmlns="http://www.w3.org/2000/svg">
<path d="M4.69252 0.749374C3.66471 0.768281 3.00815 1.18336 2.72627 1.82875C2.45729 2.4432 2.51745 3.21922 2.71252 4.02187C2.60768 4.14476 2.52432 4.30976 2.5544 4.55812C2.58706 4.82883 2.66182 5.02133 2.76752 5.15625C2.82596 5.23016 2.90245 5.23703 2.97377 5.27312C3.01245 5.50344 3.0769 5.73375 3.17315 5.92625C3.22815 6.03711 3.29088 6.13937 3.3519 6.22187C3.3794 6.25883 3.41893 6.28031 3.44815 6.31125C3.44987 6.58281 3.45073 6.80883 3.42752 7.095C3.3562 7.26773 3.18948 7.40695 2.91877 7.54187C2.63948 7.68109 2.27596 7.81 1.90815 7.96812C1.54034 8.12625 1.16221 8.31875 0.863149 8.62125C0.564087 8.92375 0.352681 9.33883 0.320024 9.88625L0.306274 10.12H9.13377L9.12002 9.88625C9.08737 9.33883 8.8751 8.92375 8.5769 8.62125C8.2787 8.31875 7.90487 8.12625 7.53877 7.96812C7.17268 7.81 6.81346 7.68109 6.53502 7.54187C6.26776 7.40781 6.09932 7.27203 6.02627 7.10187C6.00221 6.81226 6.00393 6.58539 6.00565 6.31125C6.03487 6.27945 6.0744 6.25883 6.1019 6.22187C6.16206 6.13851 6.21963 6.03625 6.27377 5.92625C6.36745 5.73375 6.43534 5.50258 6.47315 5.27312C6.5419 5.23703 6.61581 5.22844 6.67252 5.15625C6.77823 5.02133 6.85299 4.82883 6.88565 4.55812C6.91487 4.3175 6.83409 4.15851 6.7344 4.03562C6.84182 3.68672 6.97932 3.12297 6.93377 2.54375C6.90885 2.2275 6.82807 1.91211 6.63815 1.65C6.46456 1.40937 6.18268 1.23406 5.8269 1.16187C5.59573 0.861953 5.17979 0.749374 4.6994 0.749374H4.69252ZM4.6994 1.18937C4.70198 1.18937 4.7037 1.18937 4.70627 1.18937C5.14885 1.19109 5.43588 1.32086 5.51752 1.46437L5.57252 1.55375L5.67565 1.5675C5.98159 1.60961 6.1569 1.73336 6.28065 1.90437C6.4044 2.07539 6.47315 2.3143 6.49377 2.57812C6.53502 3.10578 6.38292 3.72023 6.28752 4.00812L6.23252 4.18L6.38377 4.26937C6.37432 4.26336 6.46799 4.32695 6.44565 4.51C6.41987 4.7257 6.36831 4.83742 6.32877 4.88812C6.28924 4.93883 6.26862 4.93625 6.2669 4.93625L6.08127 4.95L6.06065 5.12875C6.04002 5.31867 5.96354 5.55156 5.87502 5.73375C5.83034 5.82484 5.78479 5.90476 5.7444 5.96062C5.70401 6.01648 5.6619 6.04742 5.68252 6.03625L5.56565 6.09812V6.22875C5.56565 6.54758 5.55276 6.80883 5.58627 7.1775V7.205L5.60002 7.2325C5.72549 7.57023 6.01596 7.78078 6.33565 7.94062C6.65534 8.10047 7.02229 8.2182 7.3669 8.36687C7.71151 8.51555 8.0269 8.69344 8.26065 8.93062C8.44627 9.11883 8.56315 9.36805 8.62502 9.68H0.815024C0.876899 9.36891 0.992915 9.11883 1.1794 8.93062C1.41401 8.69344 1.7337 8.51555 2.08002 8.36687C2.42635 8.2182 2.79073 8.10047 3.11127 7.94062C3.43182 7.78078 3.72831 7.57023 3.85377 7.2325L3.86752 7.1775C3.90104 6.80883 3.88815 6.54758 3.88815 6.22875V6.09812L3.77127 6.03625C3.79104 6.04656 3.74377 6.01648 3.70252 5.96062C3.66127 5.90476 3.61057 5.82484 3.56502 5.73375C3.47393 5.55156 3.39917 5.31695 3.3794 5.12875L3.35877 4.95L3.17315 4.93625C3.17143 4.93625 3.15081 4.93883 3.11127 4.88812C3.07174 4.83742 3.02018 4.7257 2.9944 4.51C2.97292 4.32695 3.06573 4.26336 3.05627 4.26937L3.20065 4.18L3.1594 4.02187C2.95229 3.22437 2.9162 2.49992 3.1319 2.0075C3.34674 1.5168 3.78502 1.20828 4.6994 1.18937Z" fill="#334257"/>
</svg>
