<svg width="23" height="23" viewBox="0 0 23 23" fill="none" xmlns="http://www.w3.org/2000/svg">
<path d="M11.5 0C5.15465 0 0 5.15465 0 11.5C0 17.8454 5.15465 23 11.5 23C17.8454 23 23 17.8454 23 11.5C23 5.15465 17.8454 0 11.5 0ZM11.5 1C17.3049 1 22 5.69509 22 11.5C22 17.3049 17.3049 22 11.5 22C5.69509 22 1 17.3049 1 11.5C1 5.69509 5.69509 1 11.5 1ZM11.6445 5.25391C9.77953 5.25391 8.54294 6.38397 8.27344 8.10547C8.25594 8.21347 8.30899 8.28473 8.41699 8.30273L9.54688 8.50098C9.65487 8.51898 9.72614 8.46492 9.74414 8.35742C9.95914 7.26342 10.6044 6.65332 11.6084 6.65332C12.6309 6.65332 13.3477 7.29929 13.3477 8.32129C13.3477 8.93129 13.1329 9.3436 12.5059 10.2041L11.3037 11.8535C10.9272 12.374 10.7666 12.7507 10.7666 13.4688V14.2031C10.7666 14.3106 10.8378 14.3829 10.9453 14.3809H12.1289C12.2364 14.3809 12.3076 14.3096 12.3076 14.2021V13.6289C12.3076 13.0194 12.4159 12.7682 12.7744 12.2842L13.9756 10.6338C14.5856 9.79079 14.8896 9.16373 14.8896 8.30273C14.8896 6.52723 13.5805 5.25391 11.6445 5.25391ZM10.8564 15.7461C10.7484 15.7461 10.6768 15.8183 10.6768 15.9258V17.4678C10.6768 17.5753 10.7479 17.6465 10.8564 17.6465H12.2197C12.3267 17.6465 12.3984 17.5758 12.3984 17.4678V15.9258C12.3984 15.8188 12.3272 15.7461 12.2197 15.7461H10.8564Z" fill="#334257"/>
</svg>
