<svg width="23" height="23" viewBox="0 0 23 23" fill="none" xmlns="http://www.w3.org/2000/svg">
<path d="M10.1025 3.16698e-07C9.98402 6.30913e-05 9.86938 0.0422184 9.77906 0.118949C9.68873 0.19568 9.6286 0.301999 9.60938 0.418946L9.12305 3.39648C8.53825 3.5666 7.98062 3.79614 7.45508 4.08203L4.99805 2.32715C4.90185 2.25846 4.78443 2.22606 4.66662 2.23572C4.54881 2.24537 4.43822 2.29645 4.35449 2.37988L2.40918 4.32324C2.32605 4.40643 2.2749 4.51626 2.26472 4.63342C2.25454 4.75058 2.28598 4.86759 2.35352 4.96387L4.08203 7.43652C3.79173 7.96514 3.55711 8.52591 3.38281 9.11621L0.41797 9.60938C0.30138 9.62901 0.19552 9.68933 0.119181 9.77961C0.0428425 9.86989 0.000963164 9.98431 0.000977386 10.1025V12.8525C0.000764131 12.9701 0.0419528 13.0839 0.117314 13.1741C0.192675 13.2643 0.297393 13.325 0.413087 13.3457L3.37988 13.8711C3.55323 14.4604 3.78636 15.0215 4.07715 15.5508L2.32715 17.999C2.25846 18.0952 2.22606 18.2126 2.23572 18.3305C2.24537 18.4483 2.29645 18.5588 2.37988 18.6426L4.32422 20.5879C4.40723 20.6709 4.5168 20.7221 4.63375 20.7325C4.7507 20.7428 4.86756 20.7117 4.96387 20.6445L7.44141 18.9102C7.9685 19.1977 8.5275 19.429 9.11426 19.6006L9.60938 22.582C9.62881 22.6988 9.68903 22.8049 9.77933 22.8814C9.86964 22.958 9.98417 23 10.1025 23H12.8525C12.9702 23.0002 13.0842 22.9588 13.1744 22.8833C13.2646 22.8077 13.3252 22.7028 13.3457 22.5869L13.876 19.5938C14.4603 19.4195 15.0167 19.1848 15.541 18.8955L18.0352 20.6455C18.1314 20.713 18.2484 20.7445 18.3656 20.7343C18.4828 20.7241 18.5926 20.673 18.6758 20.5898L20.6201 18.6436C20.7039 18.5596 20.7551 18.4486 20.7646 18.3303C20.7741 18.2121 20.7412 18.0943 20.6719 17.998L18.8936 15.5293C19.1779 15.0075 19.407 14.4544 19.5771 13.874L22.5859 13.3467C22.7018 13.3262 22.8068 13.2655 22.8823 13.1753C22.9579 13.0851 22.9992 12.9712 22.999 12.8535V10.1035C22.999 9.985 22.9568 9.87036 22.8801 9.78003C22.8033 9.68971 22.697 9.62957 22.5801 9.61035L19.5762 9.11914C19.4048 8.53941 19.1751 7.98736 18.8906 7.46582L20.6445 4.9668C20.7121 4.87052 20.7435 4.75351 20.7333 4.63635C20.7231 4.51919 20.672 4.40936 20.5889 4.32617L18.6436 2.38184C18.5596 2.29804 18.4486 2.24683 18.3303 2.23735C18.2121 2.22787 18.0943 2.26074 17.998 2.33008L15.5361 4.10059C15.0116 3.81241 14.4549 3.579 13.8691 3.40625L13.3457 0.414063C13.3254 0.29801 13.2649 0.192836 13.1746 0.117085C13.0844 0.0413328 12.9703 -0.000132211 12.8525 3.16698e-07H10.1025ZM10.5283 1H12.4326L12.9307 3.84277C12.9472 3.93812 12.9911 4.02661 13.057 4.0975C13.1229 4.1684 13.2079 4.21866 13.3018 4.24219C14.033 4.42442 14.7198 4.71327 15.3467 5.09277C15.4305 5.14356 15.5274 5.16859 15.6253 5.16477C15.7232 5.16095 15.8179 5.12845 15.8975 5.07129L18.2373 3.38965L19.584 4.73633L17.918 7.11035C17.8623 7.18955 17.8309 7.28319 17.8274 7.37992C17.8239 7.47664 17.8486 7.5723 17.8984 7.65527C18.2742 8.28074 18.5592 8.96319 18.7412 9.69043C18.7649 9.78515 18.8158 9.87085 18.8877 9.93697C18.9595 10.0031 19.0492 10.0467 19.1455 10.0625L21.999 10.5293V12.4336L19.1396 12.9355C19.0442 12.9524 18.9558 12.9967 18.885 13.0629C18.8143 13.1291 18.7643 13.2145 18.7412 13.3086C18.5613 14.0349 18.2761 14.7173 17.9004 15.3428C17.85 15.4266 17.8252 15.5233 17.8292 15.621C17.8332 15.7188 17.8657 15.8132 17.9228 15.8926L19.6123 18.2373L18.2656 19.585L15.8955 17.9219C15.8159 17.8661 15.7218 17.8348 15.6247 17.8317C15.5276 17.8285 15.4316 17.8538 15.3486 17.9043C14.7249 18.2838 14.0374 18.574 13.3086 18.7588C13.2152 18.7823 13.1305 18.8324 13.0649 18.9029C12.9992 18.9734 12.9553 19.0614 12.9385 19.1562L12.4336 22H10.5264L10.0557 19.1689C10.0396 19.0726 9.99578 18.9831 9.92949 18.9115C9.8632 18.8398 9.77738 18.7891 9.68262 18.7656C8.95093 18.5853 8.26105 18.2969 7.62988 17.918C7.54702 17.8683 7.45155 17.8438 7.35502 17.8472C7.25849 17.8507 7.16503 17.8821 7.08594 17.9375L4.73438 19.585L3.38672 18.2354L5.04883 15.9121C5.10563 15.8325 5.13785 15.738 5.14149 15.6403C5.14514 15.5426 5.12005 15.4459 5.06934 15.3623C4.68633 14.7294 4.39666 14.0396 4.21387 13.3047C4.19048 13.2111 4.14051 13.1262 4.06999 13.0604C3.99946 12.9945 3.9114 12.9505 3.81641 12.9336L1.00098 12.4336V10.5264L3.81445 10.0586C3.91063 10.0426 4.00005 9.99893 4.07171 9.93282C4.14337 9.86672 4.19414 9.78111 4.21777 9.68652C4.40214 8.94907 4.69166 8.25937 5.07324 7.62793C5.12356 7.54503 5.14869 7.44929 5.14557 7.35237C5.14245 7.25545 5.11121 7.16152 5.05566 7.08203L3.41309 4.73438L4.76172 3.38672L7.09277 5.05273C7.17208 5.10928 7.26617 5.14144 7.36349 5.14525C7.46082 5.14907 7.55714 5.12438 7.64063 5.07422C8.26845 4.69715 8.95993 4.41104 9.69238 4.23145C9.78759 4.208 9.87381 4.15709 9.94031 4.08503C10.0068 4.01297 10.0507 3.92295 10.0664 3.82617L10.5283 1ZM11.5 7.5C9.29678 7.5 7.5 9.29678 7.5 11.5C7.5 13.7032 9.29678 15.5 11.5 15.5C13.7032 15.5 15.5 13.7032 15.5 11.5C15.5 9.29678 13.7032 7.5 11.5 7.5ZM11.5 8.5C13.1628 8.5 14.5 9.83722 14.5 11.5C14.5 13.1628 13.1628 14.5 11.5 14.5C9.83722 14.5 8.5 13.1628 8.5 11.5C8.5 9.83722 9.83722 8.5 11.5 8.5Z" fill="#334257"/>
</svg>
