<svg width="25" height="25" viewBox="0 0 25 25" fill="none" xmlns="http://www.w3.org/2000/svg">
<path d="M20 0C17.2656 0 15.0332 2.21094 15 4.9375L7.95312 8.46875C7.125 7.85938 6.10352 7.5 5 7.5C2.24414 7.5 0 9.74414 0 12.5C0 15.2559 2.24414 17.5 5 17.5C6.10352 17.5 7.125 17.1406 7.95312 16.5312L15 20.0625C15.0332 22.7891 17.2656 25 20 25C22.7559 25 25 22.7559 25 20C25 17.2441 22.7559 15 20 15C18.9375 15 17.9512 15.3379 17.1406 15.9062L10.3125 12.5L17.1406 9.09375C17.9512 9.66211 18.9375 10 20 10C22.7559 10 25 7.75586 25 5C25 2.24414 22.7559 0 20 0ZM20 1C22.2148 1 24 2.78516 24 5C24 7.21484 22.2148 9 20 9C19.1816 9 18.4297 8.74609 17.7969 8.32812C17.7344 8.11914 17.5449 7.97461 17.3281 7.96875C17.3262 7.9668 17.3145 7.9707 17.3125 7.96875C16.6152 7.33789 16.1465 6.45508 16.0312 5.46875C16.1367 5.29297 16.125 5.07031 16 4.90625C16.0508 2.73633 17.8164 1 20 1ZM15.1094 6C15.2949 6.9043 15.7246 7.71875 16.3281 8.375L9.90625 11.5938C9.73633 10.6797 9.32812 9.85547 8.73438 9.1875L15.1094 6ZM5 8.5C5.92578 8.5 6.77734 8.80469 7.45312 9.32812C7.45898 9.33203 7.46289 9.33984 7.46875 9.34375C7.47266 9.35352 7.47852 9.36523 7.48438 9.375C7.52734 9.42773 7.58008 9.46875 7.64062 9.5C7.64258 9.50195 7.6543 9.49805 7.65625 9.5C8.4043 10.1641 8.89844 11.1113 8.98438 12.1719C8.92773 12.3086 8.93359 12.4629 9 12.5938C8.99023 12.6348 8.98438 12.6758 8.98438 12.7188C8.92383 13.8281 8.41992 14.8145 7.64062 15.5C7.59375 15.5293 7.55078 15.5664 7.51562 15.6094C6.82812 16.166 5.95703 16.5 5 16.5C2.78516 16.5 1 14.7148 1 12.5C1 10.2852 2.78516 8.5 5 8.5ZM9.90625 13.4062L16.3281 16.625C15.7246 17.2812 15.2949 18.0957 15.1094 19L8.73438 15.8125C9.32812 15.1445 9.73633 14.3203 9.90625 13.4062ZM20 16C22.2148 16 24 17.7852 24 20C24 22.2148 22.2148 24 20 24C17.7852 24 16 22.2148 16 20C16 18.7969 16.5234 17.7168 17.3594 16.9844C17.3711 16.9746 17.3809 16.9648 17.3906 16.9531C17.3926 16.9512 17.4043 16.9551 17.4062 16.9531C17.4863 16.9199 17.5566 16.8652 17.6094 16.7969C18.2773 16.2988 19.0996 16 20 16Z" fill="#334257"/>
</svg>
