<svg width="11" height="11" viewBox="0 0 11 11" fill="none" xmlns="http://www.w3.org/2000/svg">
<path d="M4.88512 0.440003C4.83297 0.44003 4.78253 0.458579 4.74278 0.49234C4.70304 0.526102 4.67658 0.572882 4.66813 0.624339L4.45414 1.93446C4.19683 2.00931 3.95147 2.1103 3.72023 2.2361L2.63914 1.46395C2.59681 1.43372 2.54515 1.41947 2.49331 1.42372C2.44147 1.42797 2.39282 1.45044 2.35598 1.48715L1.50004 2.34223C1.46346 2.37883 1.44096 2.42716 1.43648 2.47871C1.432 2.53026 1.44583 2.58174 1.47555 2.6241L2.23609 3.71207C2.10836 3.94466 2.00513 4.1914 1.92844 4.45114L0.623907 4.66813C0.572607 4.67677 0.526029 4.70331 0.49244 4.74303C0.458851 4.78276 0.440424 4.8331 0.44043 4.88512V6.09512C0.440336 6.14683 0.458459 6.19692 0.491618 6.2366C0.524777 6.27628 0.570853 6.30302 0.621758 6.31211L1.92715 6.54328C2.00342 6.80257 2.106 7.04948 2.23395 7.28235L1.46395 8.35957C1.43372 8.4019 1.41947 8.45357 1.42372 8.5054C1.42796 8.55724 1.45044 8.6059 1.48715 8.64274L2.34266 9.49867C2.37918 9.53521 2.42739 9.55772 2.47885 9.56228C2.53031 9.56684 2.58173 9.55314 2.6241 9.5236L3.71422 8.76047C3.94614 8.88701 4.1921 8.98875 4.45027 9.06426L4.66813 10.3761C4.67667 10.4275 4.70317 10.4742 4.74291 10.5078C4.78264 10.5415 4.83303 10.56 4.88512 10.56H6.09512C6.14689 10.5601 6.19703 10.5419 6.23672 10.5086C6.27641 10.4754 6.30311 10.4292 6.31211 10.3782L6.54543 9.06125C6.80254 8.98458 7.04734 8.88134 7.27805 8.75403L8.37547 9.52403C8.41783 9.55374 8.46931 9.56758 8.52086 9.5631C8.57242 9.55862 8.62074 9.53611 8.65734 9.49953L9.51285 8.64317C9.54972 8.60622 9.57225 8.55737 9.57642 8.50534C9.5806 8.45331 9.56613 8.40149 9.53562 8.35914L8.75316 7.27289C8.87827 7.04329 8.97906 6.79995 9.05394 6.54457L10.3778 6.31254C10.4288 6.30354 10.475 6.27684 10.5082 6.23715C10.5415 6.19746 10.5596 6.14732 10.5596 6.09555V4.88555C10.5595 4.8334 10.541 4.78296 10.5072 4.74322C10.4735 4.70347 10.4267 4.67701 10.3752 4.66856L9.05352 4.45242C8.97813 4.19734 8.87706 3.95444 8.75187 3.72496L9.52359 2.62539C9.55331 2.58303 9.56714 2.53155 9.56266 2.48C9.55818 2.42844 9.53568 2.38012 9.4991 2.34352L8.64316 1.48801C8.60622 1.45114 8.55736 1.42861 8.50534 1.42444C8.45331 1.42027 8.40149 1.43473 8.35914 1.46524L7.2759 2.24426C7.0451 2.11746 6.80014 2.01476 6.54242 1.93875L6.31211 0.62219C6.3032 0.571127 6.27654 0.52485 6.23684 0.49152C6.19714 0.458189 6.14695 0.439944 6.09512 0.440003H4.88512ZM5.07246 0.880003H5.91035L6.12949 2.13082C6.13678 2.17277 6.15609 2.21171 6.18508 2.2429C6.21406 2.2741 6.25147 2.29621 6.29277 2.30657C6.61453 2.38675 6.91671 2.51384 7.19254 2.68082C7.22942 2.70317 7.27205 2.71418 7.31513 2.7125C7.35822 2.71082 7.39986 2.69652 7.43488 2.67137L8.46441 1.93145L9.05695 2.52399L8.32391 3.56856C8.29942 3.6034 8.28558 3.64461 8.28405 3.68717C8.28253 3.72973 8.29339 3.77181 8.31531 3.80832C8.48064 4.08353 8.60603 4.38381 8.68613 4.70379C8.69656 4.74547 8.71897 4.78318 8.75058 4.81227C8.78219 4.84136 8.82163 4.86056 8.86402 4.8675L10.1196 5.07289V5.91078L8.86144 6.13164C8.81946 6.13907 8.78054 6.15854 8.74942 6.18768C8.71829 6.21682 8.69631 6.25438 8.68613 6.29578C8.60696 6.61536 8.48149 6.91563 8.31617 7.19082C8.29398 7.22769 8.28309 7.27026 8.28485 7.31326C8.2866 7.35626 8.30093 7.3978 8.32605 7.43274L9.06941 8.46442L8.47687 9.05739L7.43402 8.32563C7.399 8.3011 7.3576 8.2873 7.31486 8.28593C7.27213 8.28456 7.22992 8.29566 7.1934 8.31789C6.91894 8.48487 6.61645 8.61257 6.29578 8.69387C6.25467 8.70423 6.21743 8.72625 6.18854 8.75728C6.15965 8.7883 6.14034 8.82701 6.13293 8.86875L5.91078 10.12H5.0716L4.86449 8.87434C4.85744 8.83196 4.83814 8.79258 4.80898 8.76105C4.77981 8.72951 4.74205 8.7072 4.70035 8.69688C4.37841 8.61753 4.07486 8.49062 3.79715 8.32391C3.76069 8.30207 3.71868 8.29126 3.67621 8.29279C3.63374 8.29431 3.59261 8.30811 3.55781 8.3325L2.52313 9.05739L1.93016 8.46356L2.66148 7.44133C2.68648 7.40631 2.70065 7.36472 2.70226 7.32173C2.70386 7.27873 2.69282 7.23621 2.67051 7.19942C2.50198 6.92095 2.37453 6.61743 2.2941 6.29406C2.28381 6.25288 2.26182 6.21555 2.23079 6.18658C2.19976 6.1576 2.16101 6.13823 2.11922 6.13078L0.88043 5.91078V5.0716L2.11836 4.86578C2.16068 4.85877 2.20002 4.83953 2.23155 4.81044C2.26308 4.78136 2.28542 4.74369 2.29582 4.70207C2.37694 4.37759 2.50433 4.07412 2.67223 3.79629C2.69437 3.75982 2.70542 3.71769 2.70405 3.67504C2.70268 3.6324 2.68893 3.59107 2.66449 3.5561L1.94176 2.52313L2.53516 1.93016L3.56082 2.66321C3.59571 2.68809 3.63711 2.70224 3.67994 2.70391C3.72276 2.70559 3.76514 2.69473 3.80188 2.67266C4.07812 2.50675 4.38237 2.38086 4.70465 2.30184C4.74654 2.29152 4.78448 2.26912 4.81374 2.23742C4.843 2.20571 4.86229 2.1661 4.86922 2.12352L5.07246 0.880003ZM5.5 3.74C4.53058 3.74 3.74 4.53059 3.74 5.5C3.74 6.46942 4.53058 7.26 5.5 7.26C6.46942 7.26 7.26 6.46942 7.26 5.5C7.26 4.53059 6.46942 3.74 5.5 3.74ZM5.5 4.18C6.23162 4.18 6.82 4.76838 6.82 5.5C6.82 6.23162 6.23162 6.82 5.5 6.82C4.76838 6.82 4.18 6.23162 4.18 5.5C4.18 4.76838 4.76838 4.18 5.5 4.18Z" fill="#334257"/>
</svg>
