<svg width="25" height="22" viewBox="0 0 25 22" fill="none" xmlns="http://www.w3.org/2000/svg">
<path d="M5.5 0C3.02734 0 1 2.02734 1 4.5C1 5.91016 1.66211 7.17383 2.6875 8H2C1.17773 8 0.5 8.67773 0.5 9.5V20C0.5 20.8223 1.17773 21.5 2 21.5H18C18.8223 21.5 19.5 20.8223 19.5 20V18H20.5C20.5391 18 20.6504 18.041 20.8125 18.1875C20.9746 18.334 21.1602 18.5625 21.3594 18.8125C21.5586 19.0625 21.7656 19.334 22.0156 19.5625C22.2656 19.791 22.5898 20 23 20H24.5V10H23.0938C22.6855 10 22.3828 10.2148 22.125 10.4375C21.8672 10.6602 21.6406 10.9219 21.4219 11.1719C21.2031 11.4219 20.9883 11.6602 20.8125 11.8125C20.6367 11.9648 20.5156 12 20.5 12H19.5V9.5C19.5 8.67773 18.8223 8 18 8H16.8125C17.8379 7.17383 18.5 5.91016 18.5 4.5C18.5 2.02734 16.4727 0 14 0C12.0371 0 10.3594 1.2832 9.75 3.04688C9.14062 1.2832 7.46289 0 5.5 0ZM5.5 1C7.42773 1 9 2.57227 9 4.5C9 6.42773 7.42773 8 5.5 8C3.57227 8 2 6.42773 2 4.5C2 2.57227 3.57227 1 5.5 1ZM14 1C15.9277 1 17.5 2.57227 17.5 4.5C17.5 6.42773 15.9277 8 14 8C12.0723 8 10.5 6.42773 10.5 4.5C10.5 2.57227 12.0723 1 14 1ZM9.75 5.95312C10.0293 6.76367 10.5312 7.4707 11.1875 8H8.3125C8.96875 7.4707 9.4707 6.76367 9.75 5.95312ZM2 9H18C18.2773 9 18.5 9.22266 18.5 9.5V12.4062C18.4863 12.4727 18.4863 12.543 18.5 12.6094V17.4062C18.4863 17.4727 18.4863 17.543 18.5 17.6094V20C18.5 20.2773 18.2773 20.5 18 20.5H2C1.72266 20.5 1.5 20.2773 1.5 20V9.5C1.5 9.22266 1.72266 9 2 9ZM23.0938 11H23.5V19H23C22.9609 19 22.8496 18.959 22.6875 18.8125C22.5254 18.666 22.3398 18.4375 22.1406 18.1875C21.9414 17.9375 21.7344 17.666 21.4844 17.4375C21.2344 17.209 20.9102 17 20.5 17H19.5V13H20.5C20.9082 13 21.2109 12.7852 21.4688 12.5625C21.7266 12.3398 21.9531 12.0781 22.1719 11.8281C22.3906 11.5781 22.6055 11.3398 22.7812 11.1875C22.957 11.0352 23.0781 11 23.0938 11Z" fill="#334257"/>
</svg>
